﻿<svg x="0" y="0" version="1.1" xmlns="http://www.w3.org/2000/svg" xmlns:xlink="http://www.w3.org/1999/xlink" viewBox="0 0 24 24" width="96" height="96" style="fill: rgb(32, 80, 129);"><g transform=""><g fill="none" stroke="none" stroke-width="1" stroke-linecap="butt" stroke-linejoin="miter" stroke-miterlimit="10" stroke-dasharray="" stroke-dashoffset="0" font-family="sans-serif" font-weight="normal" font-size="12" text-anchor="start" mix-blend-mode="normal"><g><g><g><path d="M0,24l0,-24l24,0l0,24z" fill="none"/><path d="M12,24c-6.62742,0 -12,-5.37258 -12,-12l0,0c0,-6.62742 5.37258,-12 12,-12l0,0c6.62742,0 12,5.37258 12,12l0,0c0,6.62742 -5.37258,12 -12,12z M12,23.04c6.09722,0 11.04,-4.94278 11.04,-11.04l0,0c0,-6.09722 -4.94278,-11.04 -11.04,-11.04l0,0c-6.09722,0 -11.04,4.94278 -11.04,11.04l0,0c0,6.09722 4.94278,11.04 11.04,11.04z" fill="#205081"/><g fill="#205081"><path d="M17.5462,12.75c0,-0.225 0.075,-0.525 0.075,-0.75c0,-0.225 0,-0.525 -0.075,-0.75l1.575,-1.125c0.15,-0.075 0.225,-0.3 0.075,-0.525l-1.5,-2.625c-0.075,-0.225 -0.3,-0.3 -0.45,-0.225l-1.8,0.825c-0.375,-0.3 -0.9,-0.6 -1.35,-0.75l-0.225,-1.95c0,-0.225 -0.15,-0.375 -0.375,-0.375l-3,0c-0.225,0 -0.375,0.15 -0.375,0.375l-0.225,1.875c-0.525,0.225 -0.975,0.45 -1.35,0.75l-1.8,-0.75c-0.15,-0.075 -0.375,0 -0.45,0.15l-1.5,2.625c-0.15,0.225 -0.15,0.45 0.075,0.525l1.575,1.2c0,0.225 -0.075,0.525 -0.075,0.75c0,0.225 0,0.525 0.075,0.75l-1.575,1.125c-0.15,0.075 -0.225,0.3 -0.075,0.525l1.5,2.625c0.075,0.225 0.3,0.3 0.45,0.225l1.8,-0.825c0.375,0.3 0.9,0.6 1.35,0.75l0.225,1.95c0,0.225 0.15,0.375 0.375,0.375l3,0c0.225,0 0.375,-0.15 0.375,-0.375l0.225,-1.95c0.525,-0.225 0.975,-0.45 1.35,-0.75l1.8,0.825c0.15,0.075 0.375,0 0.45,-0.15l1.5,-2.625c0.075,-0.15 0.075,-0.375 -0.075,-0.525z M11.9962,15c-1.65,0 -3,-1.35 -3,-3c0,-1.65 1.35,-3 3,-3c1.65,0 3,1.35 3,3c0,1.65 -1.35,3 -3,3z"/></g><g fill="none"/></g></g></g></g></g></svg>