<svg x="0" y="0" version="1.1" xmlns="http://www.w3.org/2000/svg" xmlns:xlink="http://www.w3.org/1999/xlink"
     viewBox="0 0 24 24" width="96" height="96" style="fill: #FFF;">
    <g fill="none" stroke="none" stroke-width="0" stroke-linecap="butt" stroke-linejoin="miter" stroke-miterlimit="10"
       stroke-dasharray="" stroke-dashoffset="0" font-family="sans-serif" font-weight="normal" font-size="12"
       text-anchor="start" mix-blend-mode="normal">
        <g>
            <g>
                <path d="M0,24l0,-24l24,0l0,24z" fill="none"/>
                <path d="M12,24c-6.62742,0 -12,-5.37258 -12,-12l0,0c0,-6.62742 5.37258,-12 12,-12l0,0c6.62742,0 12,5.37258 12,12l0,0c0,6.62742 -5.37258,12 -12,12z M12,23.04c6.09722,0 11.04,-4.94278 11.04,-11.04l0,0c0,-6.09722 -4.94278,-11.04 -11.04,-11.04l0,0c-6.09722,0 -11.04,4.94278 -11.04,11.04l0,0c0,6.09722 4.94278,11.04 11.04,11.04z"
                      fill="#FFF"/>
                <g fill="#00B0F0">
                    <path d="M16.5,4.5c-1.24264,0 -2.25,1.00736 -2.25,2.25c0,0.14724 0.01987,0.28252 0.04687,0.42187l-5.34375,3.11719c-0.3925,-0.33368 -0.89759,-0.53906 -1.45313,-0.53906c-1.24264,0 -2.25,1.00736 -2.25,2.25c0,1.24264 1.00736,2.25 2.25,2.25c0.55553,0 1.06062,-0.20538 1.45313,-0.53906l5.34375,3.11719c-0.027,0.13935 -0.04687,0.27463 -0.04687,0.42187c0,1.24264 1.00736,2.25 2.25,2.25c1.24264,0 2.25,-1.00736 2.25,-2.25c0,-1.24264 -1.00736,-2.25 -2.25,-2.25c-0.55553,0 -1.06062,0.20538 -1.45313,0.53906l-5.34375,-3.11719c0.027,-0.13935 0.04687,-0.27463 0.04687,-0.42187c0,-0.14724 -0.01987,-0.28252 -0.04687,-0.42187l5.34375,-3.11719c0.3925,0.33368 0.89759,0.53906 1.45313,0.53906c1.24264,0 2.25,-1.00736 2.25,-2.25c0,-1.24264 -1.00736,-2.25 -2.25,-2.25z"/>
                </g>
            </g>
        </g>
    </g>
</svg>