<svg x="0" y="0" version="1.1" xmlns="http://www.w3.org/2000/svg" xmlns:xlink="http://www.w3.org/1999/xlink" viewBox="0 0 26 26" width="104" height="104" style="fill: rgb(32, 80, 129);"><g fill="none" stroke="none" stroke-width="1" stroke-linecap="butt" stroke-linejoin="miter" stroke-miterlimit="10" stroke-dasharray="" stroke-dashoffset="0" font-family="sans-serif" font-weight="normal" font-size="12" text-anchor="start" mix-blend-mode="normal"><g><g><path d="M0,26l0,-26l26,0l0,26z" fill="none"/><path d="M13,26c-7.1797,0 -13,-5.8203 -13,-13l0,0c0,-7.1797 5.8203,-13 13,-13l0,0c7.1797,0 13,5.8203 13,13l0,0c0,7.1797 -5.8203,13 -13,13z M13,24.96c6.60533,0 11.96,-5.35467 11.96,-11.96l0,0c0,-6.60533 -5.35467,-11.96 -11.96,-11.96l0,0c-6.60533,0 -11.96,5.35467 -11.96,11.96l0,0c0,6.60533 5.35467,11.96 11.96,11.96z" fill="#205081"/><g fill="#205081"><path d="M15.67225,15.18013c-0.11925,-0.039 -0.873,-0.37875 -0.402,-1.8105l-0.00675,0c1.22775,-1.2645 2.166,-3.29925 2.166,-5.3025c0,-3.08025 -2.04825,-4.695 -4.42875,-4.695c-2.382,0 -4.419,1.614 -4.419,4.695c0,2.0115 0.933,4.0545 2.16825,5.316c0.4815,1.263 -0.3795,1.73175 -0.5595,1.797c-2.493,0.90225 -5.418,2.5455 -5.418,4.16775c0,0.438 0,0.1725 0,0.60825c0,2.21025 4.2855,2.71275 8.2515,2.71275c3.972,0 8.2035,-0.5025 8.2035,-2.71275c0,-0.435 0,-0.17025 0,-0.60825c0,-1.671 -2.93925,-3.3015 -5.55525,-4.16775z"/></g></g></g></g></svg>